# AST/ASF file generated using VICON BodyLanguage
# -----------------------------------------------
:version 1.10
:name VICON
:units
  mass 1.0
  length 0.45
  angle deg
:documentation
   .ast/.asf automatically generated from VICON data using
   VICON BodyBuilder and BodyLanguage model FoxedUp or BRILLIANT.MOD
:root
   order TX TY TZ RX RY RZ
   axis XYZ
   position 0 0 0  
   orientation 0 0 0 
:bonedata
  begin
     id 1 
     name lhipjoint
     direction 0.690799 -0.707083 0.151096 
     length 2.54797 
     axis 0 0 0  XYZ
  end
  begin
     id 2 
     name lfemur
     direction 0.34202 -0.939693 0  
     length 7.21646  
     axis 0 0 20  XYZ
    dof rx ry rz
    limits (-160.0 20.0)
           (-70.0 70.0)
           (-60.0 70.0)
  end
  begin
     id 3 
     name ltibia
     direction 0.34202 -0.939693 0   
     length 8.16759   
     axis 0 0 20   XYZ
    dof rx
    limits (-10.0 170.0)
  end
  begin
     id 4 
     name lfoot
     direction 0.0487203 -0.133858 0.989802   
     length 1.93375   
     axis -90 7.62852e-016 20   XYZ
    dof rx rz
    limits (-45.0 90.0)
           (-70.0 20.0)
  end
  begin
     id 5 
     name ltoes
     direction 1.53453e-011 -4.21783e-011 1   
     length 0.979747   
     axis -90 7.62852e-016 20   XYZ
    dof rx
    limits (-90.0 20.0)
  end
  begin
     id 6 
     name rhipjoint
     direction -0.694693 -0.703425 0.150315   
     length 2.56122  
     axis 0 0 0  XYZ 
  end
  begin
     id 7 
     name rfemur
     direction -0.34202 -0.939693 0   
     length 7.36786   
     axis 0 0 -20   XYZ
    dof rx ry rz
    limits (-160.0 20.0)
           (-70.0 70.0)
           (-70.0 60.0)
  end
  begin
     id 8 
     name rtibia
     direction -0.34202 -0.939693 0   
     length 8.07288   
     axis 0 0 -20   XYZ
    dof rx
    limits (-10.0 170.0)
 end
 begin
     id 9 
     name rfoot
     direction -0.0428397 -0.117701 0.992125   
     length 1.88295  
     axis -90 -7.62852e-016 -20   XYZ
    dof rx rz
    limits (-45.0 90.0)
           (-20.0 70.0)
  end
  begin
     id 10 
     name rtoes
     direction -1.53456e-011 -4.2187e-011 1   
     length 0.955578   
     axis -90 -7.62852e-016 -20   XYZ
    dof rx
    limits (-90.0 20.0)
  end
  begin
     id 11 
     name lowerback
     direction 0.0288145 0.999398 -0.0193241   
     length 1.92149   
     axis 0 0 0   XYZ
    dof rx ry rz
    limits (-20.0 45.0)
           (-30.0 30.0)
           (-30.0 30.0)
  end
  begin
     id 12 
     name upperback
     direction 0.0233784 0.998099 0.0570278   
     length 1.90435   
     axis 0 0 0   XYZ
    dof rx ry rz
    limits (-20.0 45.0)
           (-30.0 30.0)
           (-30.0 30.0)
  end
  begin
     id 13 
     name thorax
     direction 0.0096694 0.997833 0.0650817   
     length 1.9111   
     axis 0 0 0   XYZ
    dof rx ry rz
    limits (-20.0 45.0)
           (-30.0 30.0)
           (-30.0 30.0)
  end
  begin
     id 14 
     name lowerneck
     direction 0.00516803 0.999916 0.0118722   
     length 1.74664   
     axis 0 0 0   XYZ
    dof rx ry rz
    limits (-20.0 45.0)
           (-30.0 30.0)
           (-30.0 30.0)
  end
  begin
     id 15 
     name upperneck
     direction -0.0510851 0.996117 -0.071696   
     length 1.68498   
     axis 0 0 0   XYZ
    dof rx ry rz
    limits (-20.0 45.0)
           (-30.0 30.0)
           (-30.0 30.0)
  end
  begin
     id 16
     name head
     direction -0.019188 0.999436 -0.0275702  
     length 1.83483  
     axis 0 0 0   XYZ
    dof rx ry rz
    limits (-20.0 45.0)
           (-30.0 30.0)
           (-30.0 30.0)
  end
  begin
     id 17 
     name lclavicle
     direction 0.967006 0.248456 -0.0562957  
     length 3.39395  
     axis 0 0 0   XYZ
    dof ry rz
    limits (-20.0 10.0)
           (0.0 20.0)
  end
  begin
     id 18 
     name lhumerus
     direction 1 -4.48962e-011 -5.62711e-019   
     length 5.24318   
     axis 180 -30 -90   XYZ
    dof rx ry rz
    limits (-60.0 90.0)
           (-90.0 90.0)
           (-90.0 90.0)
  end
  begin
     id 19
     name lradius
     direction 1 -4.48966e-011 7.90625e-027   
     length 2.98999   
     axis 180 -30 -90   XYZ
    dof rx
    limits (-10.0 170.0)
  end
  begin
     id 20
     name lwrist
     direction 1 -4.48959e-011 1.61068e-026   
     length 1.49499   
     axis -9.31229e-015 90 90   XYZ
    dof ry
    limits (-180.0 0.0)
 end
  begin
     id 21 
     name lhand
     direction 1 -4.49017e-011 3.22136e-026   
     length 0.726745   
     axis -2.0555e-014 90 90   XYZ
    dof rx rz
    limits (-90.0 90.0)
           (-45.0 45.0)
  end
  begin
     id 22 
     name lfingers
     direction 1 -4.4898e-011 6.44272e-026   
     length 0.58592   
     axis -4.11101e-014 90 90   XYZ
    dof rx
    limits (0.0 90.0)
  end
  begin
     id 23
     name lthumb
     direction 0.707107 -6.34922e-011 0.707107   
     length 0.841268   
     axis -90 45 2.85299e-015   XYZ
    dof rx rz
    limits (-45.0 45.0)
           (-45.0 45.0)
  end
  begin
     id 24 
     name rclavicle
     direction -0.972232 0.230238 0.0419005   
     length 3.40416  
     axis 0 0 0   XYZ 
    dof ry rz
    limits (-10.0 20.0)
           (-20.0 0.0)
  end
  begin
     id 25 
     name rhumerus
     direction -1 -4.48976e-011 2.48487e-027  
     length 5.37045   
     axis 180 30 90   XYZ
    dof rx ry rz
    limits (-90.0 60.0)
           (-90.0 90.0)
           (-90.0 90.0)
  end
  begin
     id 26 
     name rradius
     direction -1 -4.48942e-011 7.87951e-027   
     length 2.92792   
     axis 180 30 90   XYZ
    dof rx
    limits (-10.0 170.0)
  end
  begin
     id 27 
     name rwrist
     direction -1 -4.48969e-011 1.61068e-026   
     length 1.46396   
     axis -9.31229e-015 -90 -90   XYZ
    dof ry
    limits (-180.0 0.0)
  end
  begin
     id 28
     name rhand
     direction -1 -4.49043e-011 3.22136e-026   
     length 0.784497   
     axis -2.0555e-014 -90 -90   XYZ
    dof rx rz
    limits (-90.0 90.0)
           (-45.0 45.0)
  end
  begin
     id 29
     name rfingers
     direction -1 -4.48823e-011 6.44272e-026   
     length 0.632482   
     axis -4.11101e-014 -90 -90   XYZ
    dof rx
    limits (0.0 90.0)
  end
  begin
     id 30
     name rthumb
     direction -0.707107 -6.34923e-011 0.707107   
     length 0.908121   
     axis -90 -45 -2.85299e-015   XYZ
    dof rx rz
    limits (-45.0 45.0)
           (-45.0 45.0)
  end
:hierarchy
  begin
    root lhipjoint rhipjoint lowerback
    lhipjoint lfemur
    lfemur ltibia
    ltibia lfoot
    lfoot ltoes
    rhipjoint rfemur
    rfemur rtibia
    rtibia rfoot
    rfoot rtoes
    lowerback upperback
    upperback thorax
    thorax lowerneck lclavicle rclavicle
    lowerneck upperneck
    upperneck head
    lclavicle lhumerus
    lhumerus lradius
    lradius lwrist
    lwrist lhand lthumb
    lhand lfingers
    rclavicle rhumerus
    rhumerus rradius
    rradius rwrist
    rwrist rhand rthumb
    rhand rfingers
  end

#!OML:ASF E:\Style6\Style6.ASF
:FULLY-SPECIFIED
:DEGREES
969
root 0.715545 13.4223 -1.46117 16.5823 1.18683 -2.09544
lowerback 16.5168 -1.98534 4.26952
upperback 4.46199 -1.75991 2.37953
thorax -4.53689 -0.886112 0.454013
lowerneck 18.1015 0.352037 1.96738
upperneck -11.137 0.107843 -5.5768
head -6.33685 0.448721 -2.12899
rclavicle 1.0138e-014 -7.55382e-015
rhumerus 15.3927 15.1751 -92.8185
rradius 139.675
rwrist 49.9732
rhand 28.4738 -5.19506
rfingers 7.12502
rthumb 52.3297 -25.1028
lclavicle 1.0138e-014 -7.55382e-015
lhumerus 9.16674 -15.0835 91.2785
lradius 134.864
lwrist -31.1075
lhand 6.8466 35.2083
lfingers 7.12502
lthumb 32.1297 62.3881
rfemur -76.1392 -15.2925 25.9161
rtibia 92.3992
rfoot -25.3483 5.09934
rtoes -10.9667
lfemur -75.3501 7.3678 -19.6061
ltibia 94.797
lfoot -29.0884 3.55017
ltoes -27.6917
970
root 0.720547 13.4197 -1.4584 16.5671 1.19461 -2.03002
lowerback 16.2692 -1.96628 4.21024
upperback 4.58397 -1.7658 2.38145
thorax -4.27327 -0.884905 0.479594
lowerneck 18.1554 0.317822 2.0585
upperneck -11.3357 0.0589175 -5.69121
head -6.4117 0.433921 -2.17865
rclavicle -1.37161e-014 3.69739e-014
rhumerus 15.5095 15.2673 -92.7669
rradius 139.625
rwrist 49.928
rhand 28.2976 -5.15893
rfingers 7.12502
rthumb 52.17 -25.163
lclavicle -1.37161e-014 3.69739e-014
lhumerus 9.18294 -15.0909 91.3336
lradius 134.901
lwrist -31.1014
lhand 6.86077 35.1767
lfingers 7.12502
lthumb 32.1432 62.3539
rfemur -76.1607 -15.3333 25.8059
rtibia 92.4561
rfoot -25.3339 5.25979
rtoes -10.2172
lfemur -75.3364 7.29634 -19.6902
ltibia 94.8314
lfoot -29.1295 3.70432
ltoes -28.0898
971
root 0.726191 13.416 -1.4563 16.558 1.21931 -1.97824
lowerback 16.2972 -1.9728 4.19989
upperback 4.52851 -1.7714 2.38774
thorax -4.34685 -0.888835 0.495371
lowerneck 18.2809 0.310158 2.06331
upperneck -11.4166 0.0424665 -5.72151
head -6.45926 0.431028 -2.18969
rclavicle 5.96354e-016 7.15625e-015
rhumerus 15.3215 15.3576 -92.7906
rradius 139.624
rwrist 49.9385
rhand 28.1904 -5.10241
rfingers 7.12502
rthumb 52.0729 -25.1646
lclavicle 5.96354e-016 7.15625e-015
lhumerus 8.89893 -15.102 91.4513
lradius 134.892
lwrist -31.1294
lhand 6.83051 35.0598
lfingers 7.12502
lthumb 32.1143 62.2428
rfemur -76.1685 -15.3913 25.7136
rtibia 92.5129
rfoot -25.3414 5.34674
rtoes -10.02
lfemur -75.3382 7.2203 -19.7679
ltibia 94.8717
lfoot -29.1597 3.81577
ltoes -28.3007
972
root 0.731545 13.4127 -1.45492 16.5271 1.22454 -1.96065
lowerback 16.3547 -1.95821 4.26375
upperback 4.46972 -1.73719 2.36166
thorax -4.4418 -0.873868 0.428275
lowerneck 18.3735 0.272694 2.12656
upperneck -11.4243 0.00646987 -5.73295
head -6.47847 0.413123 -2.20085
rclavicle -1.05356e-014 2.74323e-014
rhumerus 15.1004 15.4442 -92.8419
rradius 139.621
rwrist 50.0051
rhand 28.1951 -5.27399
rfingers 7.12502
rthumb 52.0771 -25.3337
lclavicle -1.05356e-014 2.74323e-014
lhumerus 8.59856 -15.2131 91.5116
lradius 134.883
lwrist -31.1839
lhand 6.7693 35.0025
lfingers 7.12502
lthumb 32.0561 62.1972
rfemur -76.1529 -15.4377 25.662
rtibia 92.5641
rfoot -25.3684 5.40663
rtoes -10.0857
lfemur -75.3154 7.18862 -19.8098
ltibia 94.9051
lfoot -29.1337 3.83707
ltoes -28.1115
973
root 0.734388 13.4127 -1.45437 16.4311 1.20668 -1.96584
lowerback 16.5065 -1.92918 4.29652
upperback 4.41925 -1.68274 2.34709
thorax -4.57666 -0.849303 0.389408
lowerneck 18.4106 0.233546 2.1802
upperneck -11.3611 -0.0313905 -5.74322
head -6.4658 0.39312 -2.20847
rclavicle -1.39149e-015 -2.0276e-014
rhumerus 14.9365 15.5326 -92.8679
rradius 139.614
rwrist 50.0833
rhand 28.2634 -5.55269
rfingers 7.12502
rthumb 52.139 -25.5754
lclavicle -1.39149e-015 -2.0276e-014
lhumerus 8.43213 -15.3283 91.5454
lradius 134.841
lwrist -31.1773
lhand 6.79129 35.0882
lfingers 7.12502
lthumb 32.077 62.2787
rfemur -76.0437 -15.4308 25.6215
rtibia 92.5829
rfoot -25.4425 5.30003
rtoes -10.7021
lfemur -75.216 7.21012 -19.8135
ltibia 94.924
lfoot -29.1378 3.7599
ltoes -27.9115
